<svg class="svg-icon" style="width: 1em; height: 1em;vertical-align: middle;fill: currentColor;overflow: hidden;" viewBox="0 0 1024 1024" version="1.1" xmlns="http://www.w3.org/2000/svg"><path d="M533.8 958.9c-39 0-74.7-15.9-100.1-45-17.2-19.8-25.5-44.2-22.7-66.9 1.9-15.3 8.8-30.4 19.9-43.8 28.4-34.1 71.4-40.7 104.5-16 17.3 12.9 32 37.2 23.2 60.1-2.7 7.1-7.5 12.3-13.4 14.5-14.4 5.4-24.4-6.1-31.1-13.6-2.8-3.2-7.1-8.1-9.3-8.4-3.6-0.6-8.4 3.1-10.3 8-3.4 8.9 0.4 20.7 9 28.1 13.7 11.8 38.3 14.9 53.8 6.8 22.2-11.7 35.2-24.9 38.5-39.5 3.4-15.2-4.5-29.2-9.9-36.6-135.7-131.8-208.5-225.5-222.8-286.5-0.1-0.3-0.1-0.7-0.2-1-7.7-59.8 1.8-103.5 29.1-133.7 24.3-26.8 58.1-37.5 82.8-45.2 36.6-11.7 60.7-25.5 71.5-41.2 8.6-12.5 8-24.7 7.3-36.5-0.1-1.8-0.2-3.5-0.2-5.2-6-5.4-21.5-3.8-36.6-2.3-11.4 1.2-23.1 2.3-34 1.2-0.7-0.1-1.4-0.2-2.1-0.5-38.3-12.8-91.3-9.2-101.6-6-4.4 3.8-13.3 4.8-45.1 7.5-19.3 1.6-41.3 3.5-51.6 6.2-0.8 0.2-1.7 0.3-2.6 0.3-10.4 0-19-9.3-27.8-30.1-5.2-12.4-8.7-24.7-8.9-25.2-0.8-2.9-0.3-6.1 1.5-8.5 1.8-2.5 4.6-4 7.6-4.2 30.8-1.6 111.1-6 131.3-8.5 26.9-23.5 59-66.5 59.3-67 1.9-2.5 4.9-4 8-4h46l60.3-48.8c2.4-2 5.7-2.7 8.7-1.9 10.4 2.6 17 9 23.9 15.7 3.4 3.3 6.9 6.7 11.3 10.1 1 0.8 1.9 1.8 2.5 2.9 2.7 4.6 14.9 12.7 26.8 20.5 30.9 20.2 77.6 50.7 85.4 100 0 0.3 0.1 0.6 0.1 0.8 8.4 116.5-54.3 161.8-61.4 166.6-0.8 0.5-1.4 1-1.9 1.3 0.5 1 1.2 2.2 1.8 3.3 1.1 1.9 2.4 4.2 3.8 7 5.3-0.7 16.4-3 39.4-9.9 21-6.3 43.1-13.7 56.4-18.1l4.3-1.4c1.9-0.6 3.9-0.7 5.8-0.2 24.2 6.6 18.9 50.7 7.3 128-8 67.4-92.6 145.3-96.2 148.6-2.2 2-5.1 2.9-8 2.5-2.9-0.4-5.5-2-7.1-4.4-0.4-0.6-37.1-56.2-60.1-77.8-3.8 0.5-7.1 3.4-10.1 8.7-9.9 17.5-8.9 50.7 8.4 72.4 0.2 0.3 0.4 0.5 0.6 0.8 7.7 11.9 16.4 23.7 25.5 36.3 39.1 53.5 83.4 114.2 52.1 186.7-1.1 2.5-2.3 5.1-3.5 7.6-22.8 45.4-69 77.6-120.6 84.2-6.2 0.8-12.4 1.2-18.5 1.2z m-41.6-166.7c-17.9 0-34.5 10-46 23.7-8.7 10.4-14 22-15.4 33.4-2.1 16.9 4.6 36.1 17.9 51.4 25.3 29 61.1 42.1 101 37.1 45.1-5.7 85.4-33.8 105.2-73.3 1.1-2.1 2.1-4.3 3-6.5 26.7-62.1-12.2-115.4-49.9-167-8.8-12.1-18-24.6-25.9-36.8-10.5-13.3-17-30.6-18.4-48.9-1.3-16.9 1.8-33.5 8.6-45.4 7.7-13.6 19.7-20.4 32.8-18.6 1.9 0.3 3.7 1.1 5.2 2.3 19 16.4 46.9 55.7 59.6 74.3 21.2-21.1 75.8-79.7 81.5-128.2v-0.3c4.4-29.4 7.9-53.4 9.2-72.8 1.3-19.9-0.3-28.1-1.5-31.4-79.6 26.6-101 30.6-109.7 28.4-3.1-0.8-5.6-2.9-6.8-5.9-1.9-4.5-3.8-7.9-5.6-10.9-4.5-7.8-11.2-19.6 6.3-31.2 3.1-2.1 19.2-13.7 33.1-39.7 15.9-29.9 22.5-66.3 19.5-108.4-6.7-40.3-47-66.7-76.5-86-15.2-10-26.5-17.3-32.1-25.4-4.5-3.7-8.2-7.2-11.5-10.4-4.3-4.2-7.5-7.2-10.7-9L506.7 134c-1.8 1.4-4 2.2-6.3 2.2h-44.5c-9.2 12-37.1 47.6-61.6 68.2-1.4 1.2-3 1.9-4.8 2.2-14.9 2.5-92 6.8-123.2 8.4 4.7 13.3 10.4 25 14.1 28.3 12.4-2.8 32.5-4.4 52-6.1 12.6-1.1 29.6-2.5 34.7-3.8 3.1-2.4 8-3.8 16.7-5 8.1-1.1 18.3-1.8 28.7-1.9 15.9-0.1 46.4 1 73.4 9.7 8.7 0.8 19-0.3 28.9-1.3 22.6-2.3 46-4.7 57.1 13.4 1 1.6 1.5 3.4 1.5 5.2 0 2.4 0.1 5 0.3 7.7 0.7 13 1.6 30.9-10.8 48.9-13.5 19.7-40.3 35.7-81.9 48.9-22.5 7.1-53.4 16.8-74 39.6-23.1 25.5-31 63.8-24.2 117.2 13.5 56.5 86.7 149.6 217.7 276.7 0.4 0.4 0.7 0.8 1 1.2 7.4 9.9 19.1 30.1 13.8 53.6-4.6 20.5-21 38.3-48.7 52.8-22.8 12-56.3 7.8-76.2-9.4-15-13-20.9-33.7-14.5-50.4 4.6-12 17.5-23.2 32.5-20.6 9.1 1.6 15.3 8.7 20.8 14.9 2.3 2.6 7 8 8.8 8.2 0 0 0.1 0 0.3-0.1 0.2-0.1 1-0.9 1.7-2.9 4.8-12.6-4.6-28.1-16.5-36.9-10.4-7.4-21-10.7-31.3-10.7z" fill="#153BDF" /><path d="M539.1 172.6m-20.1 0a20.1 20.1 0 1 0 40.2 0 20.1 20.1 0 1 0-40.2 0Z" fill="#153BDF" /></svg>